<svg xmlns="http://www.w3.org/2000/svg" viewBox="-30 -80 700 1040" role="img" aria-label="Correction de l'exercice 3 : les vecteurs position OM4 et OM21 sont tracés depuis l'origine, et le vecteur déplacement M4M21 relie directement M4 à M21" font-family="'IBM Plex Mono', monospace">
  <defs><marker id="p-encre" viewBox="0 0 10 10" refX="8.5" refY="5" markerWidth="6.5" markerHeight="6.5" orient="auto-start-reverse"><path d="M0 0 L10 5 L0 10 z" fill="#141a26"/></marker><marker id="p-rouge" viewBox="0 0 10 10" refX="8.5" refY="5" markerWidth="6.5" markerHeight="6.5" orient="auto-start-reverse"><path d="M0 0 L10 5 L0 10 z" fill="#d6402b"/></marker><marker id="p-teal" viewBox="0 0 10 10" refX="8.5" refY="5" markerWidth="6.5" markerHeight="6.5" orient="auto-start-reverse"><path d="M0 0 L10 5 L0 10 z" fill="#2f6b70"/></marker><marker id="p-violet" viewBox="0 0 10 10" refX="8.5" refY="5" markerWidth="6.5" markerHeight="6.5" orient="auto-start-reverse"><path d="M0 0 L10 5 L0 10 z" fill="#5f4b73"/></marker></defs>
  <rect x="-30" y="-80" width="700" height="1040" fill="#ffffff"/>
  <path d="M589.5 92.9 H607.5 M598.5 83.9 V101.9" stroke="#8a8f9a" stroke-width="1.6"/>
  <path d="M561.4 68.8 H579.4 M570.4 59.8 V77.8" stroke="#8a8f9a" stroke-width="1.6"/>
  <path d="M527.5 49.0 H545.5 M536.5 40.0 V58.0" stroke="#8a8f9a" stroke-width="1.6"/>
  <path d="M480.7 106.1 H498.7 M489.7 97.1 V115.1" stroke="#8a8f9a" stroke-width="1.6"/>
  <path d="M462.0 142.8 H480.0 M471.0 133.8 V151.8" stroke="#8a8f9a" stroke-width="1.6"/>
  <path d="M455.3 186.7 H473.3 M464.3 177.7 V195.7" stroke="#8a8f9a" stroke-width="1.6"/>
  <path d="M431.6 239.4 H449.6 M440.6 230.4 V248.4" stroke="#8a8f9a" stroke-width="1.6"/>
  <path d="M418.5 290.0 H436.5 M427.5 281.0 V299.0" stroke="#8a8f9a" stroke-width="1.6"/>
  <path d="M406.8 354.5 H424.8 M415.8 345.5 V363.5" stroke="#8a8f9a" stroke-width="1.6"/>
  <path d="M406.7 405.0 H424.7 M415.7 396.0 V414.0" stroke="#8a8f9a" stroke-width="1.6"/>
  <path d="M418.5 449.2 H436.5 M427.5 440.2 V458.2" stroke="#8a8f9a" stroke-width="1.6"/>
  <path d="M450.2 474.4 H468.2 M459.2 465.4 V483.4" stroke="#8a8f9a" stroke-width="1.6"/>
  <path d="M475.6 492.6 H493.6 M484.6 483.6 V501.6" stroke="#8a8f9a" stroke-width="1.6"/>
  <path d="M512.3 525.7 H530.3 M521.3 516.7 V534.7" stroke="#8a8f9a" stroke-width="1.6"/>
  <path d="M536.1 554.5 H554.1 M545.1 545.5 V563.5" stroke="#8a8f9a" stroke-width="1.6"/>
  <path d="M524.1 585.8 H542.1 M533.1 576.8 V594.8" stroke="#8a8f9a" stroke-width="1.6"/>
  <path d="M505.6 623.2 H523.6 M514.6 614.2 V632.2" stroke="#8a8f9a" stroke-width="1.6"/>
  <path d="M487.5 653.5 H505.5 M496.5 644.5 V662.5" stroke="#8a8f9a" stroke-width="1.6"/>
  <path d="M450.0 678.5 H468.0 M459.0 669.5 V687.5" stroke="#8a8f9a" stroke-width="1.6"/>
  <path d="M369.5 704.0 H387.5 M378.5 695.0 V713.0" stroke="#8a8f9a" stroke-width="1.6"/>
  <path d="M332.9 704.0 H350.9 M341.9 695.0 V713.0" stroke="#8a8f9a" stroke-width="1.6"/>
  <path d="M282.5 666.6 H300.5 M291.5 657.6 V675.6" stroke="#8a8f9a" stroke-width="1.6"/>
  <path d="M245.0 623.2 H263.0 M254.0 614.2 V632.2" stroke="#8a8f9a" stroke-width="1.6"/>
  <path d="M201.8 597.8 H219.8 M210.8 588.8 V606.8" stroke="#8a8f9a" stroke-width="1.6"/>
  <path d="M164.5 585.8 H182.5 M173.5 576.8 V594.8" stroke="#8a8f9a" stroke-width="1.6"/>
  <path d="M121.0 604.5 H139.0 M130.0 595.5 V613.5" stroke="#8a8f9a" stroke-width="1.6"/>
  <path d="M95.7 635.0 H113.7 M104.7 626.0 V644.0" stroke="#8a8f9a" stroke-width="1.6"/>
  <path d="M70.9 671.8 H88.9 M79.9 662.8 V680.8" stroke="#8a8f9a" stroke-width="1.6"/>
  <path d="M52.2 715.5 H70.2 M61.2 706.5 V724.5" stroke="#8a8f9a" stroke-width="1.6"/>
  <path d="M38.8 779.4 H56.8 M47.8 770.4 V788.4" stroke="#8a8f9a" stroke-width="1.6"/>
  <path d="M27.2 845.7 H45.2 M36.2 836.7 V854.7" stroke="#8a8f9a" stroke-width="1.6"/>
  <path d="M27.0 900.5 H45.0 M36.0 891.5 V909.5" stroke="#8a8f9a" stroke-width="1.6"/>

  <!-- repère spatial : origine O, vecteurs unitaires i et j -->
  <circle cx="40.0" cy="60.0" r="3.4" fill="#141a26"/>
  <text x="16.0" y="50.0" font-size="21" fill="#141a26" font-style="italic">O</text>
  <line x1="40.0" y1="60.0" x2="102.0" y2="60.0" stroke="#141a26" stroke-width="2.0" marker-end="url(#p-encre)"/>
  <text x="108.0" y="66.0" font-size="19" fill="#141a26" font-style="italic">i</text>
  <line x1="40.0" y1="60.0" x2="40.0" y2="-2.0" stroke="#141a26" stroke-width="2.0" marker-end="url(#p-encre)"/>
  <text x="20.0" y="-6.0" font-size="19" fill="#141a26" font-style="italic">j</text>
  <line x1="40.0" y1="60.0" x2="508.0" y2="74.0" stroke="#d6402b" stroke-width="2.4" marker-end="url(#p-rouge)"/>
  <line x1="40.0" y1="60.0" x2="422.5" y2="690.5" stroke="#2f6b70" stroke-width="2.4" marker-end="url(#p-teal)"/>
  <line x1="508.0" y1="74.0" x2="422.5" y2="690.5" stroke="#5f4b73" stroke-width="3.0" marker-end="url(#p-violet)"/>
  <path d="M498.0 74.0 H518.0 M508.0 64.0 V84.0" stroke="#d6402b" stroke-width="2.2"/>
  <circle cx="508.0" cy="74.0" r="4.6" fill="#d6402b"/>
  <text x="520.0" y="64.0" font-size="22" fill="#d6402b" font-weight="600">M<tspan font-size="15" dy="5">4</tspan></text>
  <path d="M412.5 690.5 H432.5 M422.5 680.5 V700.5" stroke="#2f6b70" stroke-width="2.2"/>
  <circle cx="422.5" cy="690.5" r="4.6" fill="#2f6b70"/>
  <text x="436.5" y="716.5" font-size="22" fill="#2f6b70" font-weight="600">M<tspan font-size="15" dy="5">21</tspan></text>
  <text x="244.0" y="55.0" font-size="20" fill="#d6402b" font-style="italic">OM<tspan font-size="14" dy="4">4</tspan></text>
  <text x="135.2" y="379.2" font-size="20" fill="#2f6b70" font-style="italic">OM<tspan font-size="14" dy="4">21</tspan></text>
  <text x="479.2" y="374.2" font-size="21" fill="#5f4b73" font-weight="600" font-style="italic">M<tspan font-size="14" dy="4">4</tspan><tspan font-size="21" dy="-4">M</tspan><tspan font-size="14" dy="4">21</tspan></text>
</svg>
