<svg class="nx nx-legers" viewBox="0 0 648 348" role="img" aria-labelledby="nx-legers-t" xmlns="http://www.w3.org/2000/svg">
<title id="nx-legers-t">Six amas de nucléons à identifier, de deux à onze nucléons, protons en rouge et neutrons en bleu.</title>
<defs><marker id="pointe-nx-legers" viewBox="0 0 10 10" refX="9" refY="5" markerWidth="6" markerHeight="6" orient="auto-start-reverse"><path d="M0 0 L10 5 L0 10 z"/></marker></defs>
<g class="noy muet">
<circle class="p" cx="108.0" cy="74.0" r="9.5"/>
<circle class="n" cx="91.7" cy="74.0" r="9.5"/>
</g>
<text class="num" x="108.0" y="148.0">A</text>
<g class="noy muet">
<circle class="p" cx="324.0" cy="74.0" r="9.5"/>
<circle class="n" cx="307.7" cy="74.0" r="9.5"/>
<circle class="p" cx="340.3" cy="74.0" r="9.5"/>
</g>
<text class="num" x="324.0" y="148.0">B</text>
<g class="noy muet">
<circle class="n" cx="531.8" cy="59.8" r="9.5"/>
<circle class="p" cx="540.0" cy="74.0" r="9.5"/>
<circle class="n" cx="523.7" cy="74.0" r="9.5"/>
<circle class="p" cx="556.3" cy="74.0" r="9.5"/>
</g>
<text class="num" x="540.0" y="148.0">C</text>
<g class="noy muet">
<circle class="n" cx="99.8" cy="211.8" r="9.5"/>
<circle class="n" cx="116.2" cy="211.8" r="9.5"/>
<circle class="p" cx="108.0" cy="226.0" r="9.5"/>
<circle class="n" cx="91.7" cy="226.0" r="9.5"/>
<circle class="p" cx="124.3" cy="226.0" r="9.5"/>
<circle class="p" cx="99.8" cy="240.2" r="9.5"/>
<circle class="n" cx="116.2" cy="240.2" r="9.5"/>
</g>
<text class="num" x="108.0" y="300.0">D</text>
<g class="noy muet">
<circle class="n" cx="315.8" cy="211.8" r="9.5"/>
<circle class="n" cx="332.2" cy="211.8" r="9.5"/>
<circle class="n" cx="299.5" cy="211.8" r="9.5"/>
<circle class="p" cx="324.0" cy="226.0" r="9.5"/>
<circle class="n" cx="307.7" cy="226.0" r="9.5"/>
<circle class="p" cx="340.3" cy="226.0" r="9.5"/>
<circle class="p" cx="315.8" cy="240.2" r="9.5"/>
<circle class="p" cx="332.2" cy="240.2" r="9.5"/>
<circle class="n" cx="299.5" cy="240.2" r="9.5"/>
</g>
<text class="num" x="324.0" y="300.0">E</text>
<g class="noy muet">
<circle class="n" cx="531.8" cy="211.8" r="9.5"/>
<circle class="n" cx="548.2" cy="211.8" r="9.5"/>
<circle class="n" cx="515.5" cy="211.8" r="9.5"/>
<circle class="n" cx="564.5" cy="211.8" r="9.5"/>
<circle class="p" cx="540.0" cy="226.0" r="9.5"/>
<circle class="n" cx="523.7" cy="226.0" r="9.5"/>
<circle class="p" cx="556.3" cy="226.0" r="9.5"/>
<circle class="p" cx="531.8" cy="240.2" r="9.5"/>
<circle class="p" cx="548.2" cy="240.2" r="9.5"/>
<circle class="p" cx="515.5" cy="240.2" r="9.5"/>
<circle class="n" cx="564.5" cy="240.2" r="9.5"/>
</g>
<text class="num" x="540.0" y="300.0">F</text>
<text class="cap pt" x="324.0" y="332.0">Rouge : proton · Bleu : neutron</text>
</svg>
