<svg class="tp tp-etats" viewBox="0 0 826 515" role="img" aria-labelledby="tp-etats-t" xmlns="http://www.w3.org/2000/svg">
<title id="tp-etats-t">Tableau périodique des 118 éléments : les gaz et les liquides à température ambiante, les éléments artificiels, et les quatre éléments qui composent l'essentiel de ton corps.</title>
<text class="rep" x="50" y="26">1</text>
<text class="rep" x="94" y="26">2</text>
<text class="rep" x="138" y="26">3</text>
<text class="rep" x="182" y="26">4</text>
<text class="rep" x="226" y="26">5</text>
<text class="rep" x="270" y="26">6</text>
<text class="rep" x="314" y="26">7</text>
<text class="rep" x="358" y="26">8</text>
<text class="rep" x="402" y="26">9</text>
<text class="rep" x="446" y="26">10</text>
<text class="rep" x="490" y="26">11</text>
<text class="rep" x="534" y="26">12</text>
<text class="rep" x="578" y="26">13</text>
<text class="rep" x="622" y="26">14</text>
<text class="rep" x="666" y="26">15</text>
<text class="rep" x="710" y="26">16</text>
<text class="rep" x="754" y="26">17</text>
<text class="rep" x="798" y="26">18</text>
<text class="rep dr" x="22" y="58">1</text>
<text class="rep dr" x="22" y="102">2</text>
<text class="rep dr" x="22" y="146">3</text>
<text class="rep dr" x="22" y="190">4</text>
<text class="rep dr" x="22" y="234">5</text>
<text class="rep dr" x="22" y="278">6</text>
<text class="rep dr" x="22" y="322">7</text>
<g class="c gaz" data-z="1"><title>Hydrogène (H) — numéro atomique 1</title><rect x="30" y="34" width="41" height="41" rx="3"/><text class="z" x="33" y="45">1</text><text class="s" x="50" y="64">H</text><circle class="chon" cx="64" cy="42" r="3.2"/></g>
<g class="c gaz" data-z="2"><title>Hélium (He) — numéro atomique 2</title><rect x="778" y="34" width="41" height="41" rx="3"/><text class="z" x="781" y="45">2</text><text class="s" x="798" y="64">He</text></g>
<g class="c" data-z="3"><title>Lithium (Li) — numéro atomique 3</title><rect x="30" y="78" width="41" height="41" rx="3"/><text class="z" x="33" y="89">3</text><text class="s" x="50" y="108">Li</text></g>
<g class="c" data-z="4"><title>Béryllium (Be) — numéro atomique 4</title><rect x="74" y="78" width="41" height="41" rx="3"/><text class="z" x="77" y="89">4</text><text class="s" x="94" y="108">Be</text></g>
<g class="c" data-z="5"><title>Bore (B) — numéro atomique 5</title><rect x="558" y="78" width="41" height="41" rx="3"/><text class="z" x="561" y="89">5</text><text class="s" x="578" y="108">B</text></g>
<g class="c" data-z="6"><title>Carbone (C) — numéro atomique 6</title><rect x="602" y="78" width="41" height="41" rx="3"/><text class="z" x="605" y="89">6</text><text class="s" x="622" y="108">C</text><circle class="chon" cx="636" cy="86" r="3.2"/></g>
<g class="c gaz" data-z="7"><title>Azote (N) — numéro atomique 7</title><rect x="646" y="78" width="41" height="41" rx="3"/><text class="z" x="649" y="89">7</text><text class="s" x="666" y="108">N</text><circle class="chon" cx="680" cy="86" r="3.2"/></g>
<g class="c gaz" data-z="8"><title>Oxygène (O) — numéro atomique 8</title><rect x="690" y="78" width="41" height="41" rx="3"/><text class="z" x="693" y="89">8</text><text class="s" x="710" y="108">O</text><circle class="chon" cx="724" cy="86" r="3.2"/></g>
<g class="c gaz" data-z="9"><title>Fluor (F) — numéro atomique 9</title><rect x="734" y="78" width="41" height="41" rx="3"/><text class="z" x="737" y="89">9</text><text class="s" x="754" y="108">F</text></g>
<g class="c gaz" data-z="10"><title>Néon (Ne) — numéro atomique 10</title><rect x="778" y="78" width="41" height="41" rx="3"/><text class="z" x="781" y="89">10</text><text class="s" x="798" y="108">Ne</text></g>
<g class="c" data-z="11"><title>Sodium (Na) — numéro atomique 11</title><rect x="30" y="122" width="41" height="41" rx="3"/><text class="z" x="33" y="133">11</text><text class="s" x="50" y="152">Na</text></g>
<g class="c" data-z="12"><title>Magnésium (Mg) — numéro atomique 12</title><rect x="74" y="122" width="41" height="41" rx="3"/><text class="z" x="77" y="133">12</text><text class="s" x="94" y="152">Mg</text></g>
<g class="c" data-z="13"><title>Aluminium (Al) — numéro atomique 13</title><rect x="558" y="122" width="41" height="41" rx="3"/><text class="z" x="561" y="133">13</text><text class="s" x="578" y="152">Al</text></g>
<g class="c" data-z="14"><title>Silicium (Si) — numéro atomique 14</title><rect x="602" y="122" width="41" height="41" rx="3"/><text class="z" x="605" y="133">14</text><text class="s" x="622" y="152">Si</text></g>
<g class="c" data-z="15"><title>Phosphore (P) — numéro atomique 15</title><rect x="646" y="122" width="41" height="41" rx="3"/><text class="z" x="649" y="133">15</text><text class="s" x="666" y="152">P</text></g>
<g class="c" data-z="16"><title>Soufre (S) — numéro atomique 16</title><rect x="690" y="122" width="41" height="41" rx="3"/><text class="z" x="693" y="133">16</text><text class="s" x="710" y="152">S</text></g>
<g class="c gaz" data-z="17"><title>Chlore (Cl) — numéro atomique 17</title><rect x="734" y="122" width="41" height="41" rx="3"/><text class="z" x="737" y="133">17</text><text class="s" x="754" y="152">Cl</text></g>
<g class="c gaz" data-z="18"><title>Argon (Ar) — numéro atomique 18</title><rect x="778" y="122" width="41" height="41" rx="3"/><text class="z" x="781" y="133">18</text><text class="s" x="798" y="152">Ar</text></g>
<g class="c" data-z="19"><title>Potassium (K) — numéro atomique 19</title><rect x="30" y="166" width="41" height="41" rx="3"/><text class="z" x="33" y="177">19</text><text class="s" x="50" y="196">K</text></g>
<g class="c" data-z="20"><title>Calcium (Ca) — numéro atomique 20</title><rect x="74" y="166" width="41" height="41" rx="3"/><text class="z" x="77" y="177">20</text><text class="s" x="94" y="196">Ca</text></g>
<g class="c" data-z="21"><title>Scandium (Sc) — numéro atomique 21</title><rect x="118" y="166" width="41" height="41" rx="3"/><text class="z" x="121" y="177">21</text><text class="s" x="138" y="196">Sc</text></g>
<g class="c" data-z="22"><title>Titane (Ti) — numéro atomique 22</title><rect x="162" y="166" width="41" height="41" rx="3"/><text class="z" x="165" y="177">22</text><text class="s" x="182" y="196">Ti</text></g>
<g class="c" data-z="23"><title>Vanadium (V) — numéro atomique 23</title><rect x="206" y="166" width="41" height="41" rx="3"/><text class="z" x="209" y="177">23</text><text class="s" x="226" y="196">V</text></g>
<g class="c" data-z="24"><title>Chrome (Cr) — numéro atomique 24</title><rect x="250" y="166" width="41" height="41" rx="3"/><text class="z" x="253" y="177">24</text><text class="s" x="270" y="196">Cr</text></g>
<g class="c" data-z="25"><title>Manganèse (Mn) — numéro atomique 25</title><rect x="294" y="166" width="41" height="41" rx="3"/><text class="z" x="297" y="177">25</text><text class="s" x="314" y="196">Mn</text></g>
<g class="c" data-z="26"><title>Fer (Fe) — numéro atomique 26</title><rect x="338" y="166" width="41" height="41" rx="3"/><text class="z" x="341" y="177">26</text><text class="s" x="358" y="196">Fe</text></g>
<g class="c" data-z="27"><title>Cobalt (Co) — numéro atomique 27</title><rect x="382" y="166" width="41" height="41" rx="3"/><text class="z" x="385" y="177">27</text><text class="s" x="402" y="196">Co</text></g>
<g class="c" data-z="28"><title>Nickel (Ni) — numéro atomique 28</title><rect x="426" y="166" width="41" height="41" rx="3"/><text class="z" x="429" y="177">28</text><text class="s" x="446" y="196">Ni</text></g>
<g class="c" data-z="29"><title>Cuivre (Cu) — numéro atomique 29</title><rect x="470" y="166" width="41" height="41" rx="3"/><text class="z" x="473" y="177">29</text><text class="s" x="490" y="196">Cu</text></g>
<g class="c" data-z="30"><title>Zinc (Zn) — numéro atomique 30</title><rect x="514" y="166" width="41" height="41" rx="3"/><text class="z" x="517" y="177">30</text><text class="s" x="534" y="196">Zn</text></g>
<g class="c" data-z="31"><title>Gallium (Ga) — numéro atomique 31</title><rect x="558" y="166" width="41" height="41" rx="3"/><text class="z" x="561" y="177">31</text><text class="s" x="578" y="196">Ga</text></g>
<g class="c" data-z="32"><title>Germanium (Ge) — numéro atomique 32</title><rect x="602" y="166" width="41" height="41" rx="3"/><text class="z" x="605" y="177">32</text><text class="s" x="622" y="196">Ge</text></g>
<g class="c" data-z="33"><title>Arsenic (As) — numéro atomique 33</title><rect x="646" y="166" width="41" height="41" rx="3"/><text class="z" x="649" y="177">33</text><text class="s" x="666" y="196">As</text></g>
<g class="c" data-z="34"><title>Sélénium (Se) — numéro atomique 34</title><rect x="690" y="166" width="41" height="41" rx="3"/><text class="z" x="693" y="177">34</text><text class="s" x="710" y="196">Se</text></g>
<g class="c liq" data-z="35"><title>Brome (Br) — numéro atomique 35</title><rect x="734" y="166" width="41" height="41" rx="3"/><text class="z" x="737" y="177">35</text><text class="s" x="754" y="196">Br</text></g>
<g class="c gaz" data-z="36"><title>Krypton (Kr) — numéro atomique 36</title><rect x="778" y="166" width="41" height="41" rx="3"/><text class="z" x="781" y="177">36</text><text class="s" x="798" y="196">Kr</text></g>
<g class="c" data-z="37"><title>Rubidium (Rb) — numéro atomique 37</title><rect x="30" y="210" width="41" height="41" rx="3"/><text class="z" x="33" y="221">37</text><text class="s" x="50" y="240">Rb</text></g>
<g class="c" data-z="38"><title>Strontium (Sr) — numéro atomique 38</title><rect x="74" y="210" width="41" height="41" rx="3"/><text class="z" x="77" y="221">38</text><text class="s" x="94" y="240">Sr</text></g>
<g class="c" data-z="39"><title>Yttrium (Y) — numéro atomique 39</title><rect x="118" y="210" width="41" height="41" rx="3"/><text class="z" x="121" y="221">39</text><text class="s" x="138" y="240">Y</text></g>
<g class="c" data-z="40"><title>Zirconium (Zr) — numéro atomique 40</title><rect x="162" y="210" width="41" height="41" rx="3"/><text class="z" x="165" y="221">40</text><text class="s" x="182" y="240">Zr</text></g>
<g class="c" data-z="41"><title>Niobium (Nb) — numéro atomique 41</title><rect x="206" y="210" width="41" height="41" rx="3"/><text class="z" x="209" y="221">41</text><text class="s" x="226" y="240">Nb</text></g>
<g class="c" data-z="42"><title>Molybdène (Mo) — numéro atomique 42</title><rect x="250" y="210" width="41" height="41" rx="3"/><text class="z" x="253" y="221">42</text><text class="s" x="270" y="240">Mo</text></g>
<g class="c" data-z="43"><title>Technétium (Tc) — numéro atomique 43</title><rect x="294" y="210" width="41" height="41" rx="3"/><text class="z" x="297" y="221">43</text><text class="s" x="314" y="240">Tc</text></g>
<g class="c" data-z="44"><title>Ruthénium (Ru) — numéro atomique 44</title><rect x="338" y="210" width="41" height="41" rx="3"/><text class="z" x="341" y="221">44</text><text class="s" x="358" y="240">Ru</text></g>
<g class="c" data-z="45"><title>Rhodium (Rh) — numéro atomique 45</title><rect x="382" y="210" width="41" height="41" rx="3"/><text class="z" x="385" y="221">45</text><text class="s" x="402" y="240">Rh</text></g>
<g class="c" data-z="46"><title>Palladium (Pd) — numéro atomique 46</title><rect x="426" y="210" width="41" height="41" rx="3"/><text class="z" x="429" y="221">46</text><text class="s" x="446" y="240">Pd</text></g>
<g class="c" data-z="47"><title>Argent (Ag) — numéro atomique 47</title><rect x="470" y="210" width="41" height="41" rx="3"/><text class="z" x="473" y="221">47</text><text class="s" x="490" y="240">Ag</text></g>
<g class="c" data-z="48"><title>Cadmium (Cd) — numéro atomique 48</title><rect x="514" y="210" width="41" height="41" rx="3"/><text class="z" x="517" y="221">48</text><text class="s" x="534" y="240">Cd</text></g>
<g class="c" data-z="49"><title>Indium (In) — numéro atomique 49</title><rect x="558" y="210" width="41" height="41" rx="3"/><text class="z" x="561" y="221">49</text><text class="s" x="578" y="240">In</text></g>
<g class="c" data-z="50"><title>Étain (Sn) — numéro atomique 50</title><rect x="602" y="210" width="41" height="41" rx="3"/><text class="z" x="605" y="221">50</text><text class="s" x="622" y="240">Sn</text></g>
<g class="c" data-z="51"><title>Antimoine (Sb) — numéro atomique 51</title><rect x="646" y="210" width="41" height="41" rx="3"/><text class="z" x="649" y="221">51</text><text class="s" x="666" y="240">Sb</text></g>
<g class="c" data-z="52"><title>Tellure (Te) — numéro atomique 52</title><rect x="690" y="210" width="41" height="41" rx="3"/><text class="z" x="693" y="221">52</text><text class="s" x="710" y="240">Te</text></g>
<g class="c" data-z="53"><title>Iode (I) — numéro atomique 53</title><rect x="734" y="210" width="41" height="41" rx="3"/><text class="z" x="737" y="221">53</text><text class="s" x="754" y="240">I</text></g>
<g class="c gaz" data-z="54"><title>Xénon (Xe) — numéro atomique 54</title><rect x="778" y="210" width="41" height="41" rx="3"/><text class="z" x="781" y="221">54</text><text class="s" x="798" y="240">Xe</text></g>
<g class="c" data-z="55"><title>Césium (Cs) — numéro atomique 55</title><rect x="30" y="254" width="41" height="41" rx="3"/><text class="z" x="33" y="265">55</text><text class="s" x="50" y="284">Cs</text></g>
<g class="c" data-z="56"><title>Baryum (Ba) — numéro atomique 56</title><rect x="74" y="254" width="41" height="41" rx="3"/><text class="z" x="77" y="265">56</text><text class="s" x="94" y="284">Ba</text></g>
<g class="c" data-z="72"><title>Hafnium (Hf) — numéro atomique 72</title><rect x="162" y="254" width="41" height="41" rx="3"/><text class="z" x="165" y="265">72</text><text class="s" x="182" y="284">Hf</text></g>
<g class="c" data-z="73"><title>Tantale (Ta) — numéro atomique 73</title><rect x="206" y="254" width="41" height="41" rx="3"/><text class="z" x="209" y="265">73</text><text class="s" x="226" y="284">Ta</text></g>
<g class="c" data-z="74"><title>Tungstène (W) — numéro atomique 74</title><rect x="250" y="254" width="41" height="41" rx="3"/><text class="z" x="253" y="265">74</text><text class="s" x="270" y="284">W</text></g>
<g class="c" data-z="75"><title>Rhénium (Re) — numéro atomique 75</title><rect x="294" y="254" width="41" height="41" rx="3"/><text class="z" x="297" y="265">75</text><text class="s" x="314" y="284">Re</text></g>
<g class="c" data-z="76"><title>Osmium (Os) — numéro atomique 76</title><rect x="338" y="254" width="41" height="41" rx="3"/><text class="z" x="341" y="265">76</text><text class="s" x="358" y="284">Os</text></g>
<g class="c" data-z="77"><title>Iridium (Ir) — numéro atomique 77</title><rect x="382" y="254" width="41" height="41" rx="3"/><text class="z" x="385" y="265">77</text><text class="s" x="402" y="284">Ir</text></g>
<g class="c" data-z="78"><title>Platine (Pt) — numéro atomique 78</title><rect x="426" y="254" width="41" height="41" rx="3"/><text class="z" x="429" y="265">78</text><text class="s" x="446" y="284">Pt</text></g>
<g class="c" data-z="79"><title>Or (Au) — numéro atomique 79</title><rect x="470" y="254" width="41" height="41" rx="3"/><text class="z" x="473" y="265">79</text><text class="s" x="490" y="284">Au</text></g>
<g class="c liq" data-z="80"><title>Mercure (Hg) — numéro atomique 80</title><rect x="514" y="254" width="41" height="41" rx="3"/><text class="z" x="517" y="265">80</text><text class="s" x="534" y="284">Hg</text></g>
<g class="c" data-z="81"><title>Thallium (Tl) — numéro atomique 81</title><rect x="558" y="254" width="41" height="41" rx="3"/><text class="z" x="561" y="265">81</text><text class="s" x="578" y="284">Tl</text></g>
<g class="c" data-z="82"><title>Plomb (Pb) — numéro atomique 82</title><rect x="602" y="254" width="41" height="41" rx="3"/><text class="z" x="605" y="265">82</text><text class="s" x="622" y="284">Pb</text></g>
<g class="c" data-z="83"><title>Bismuth (Bi) — numéro atomique 83</title><rect x="646" y="254" width="41" height="41" rx="3"/><text class="z" x="649" y="265">83</text><text class="s" x="666" y="284">Bi</text></g>
<g class="c" data-z="84"><title>Polonium (Po) — numéro atomique 84</title><rect x="690" y="254" width="41" height="41" rx="3"/><text class="z" x="693" y="265">84</text><text class="s" x="710" y="284">Po</text></g>
<g class="c" data-z="85"><title>Astate (At) — numéro atomique 85</title><rect x="734" y="254" width="41" height="41" rx="3"/><text class="z" x="737" y="265">85</text><text class="s" x="754" y="284">At</text></g>
<g class="c gaz" data-z="86"><title>Radon (Rn) — numéro atomique 86</title><rect x="778" y="254" width="41" height="41" rx="3"/><text class="z" x="781" y="265">86</text><text class="s" x="798" y="284">Rn</text></g>
<g class="c" data-z="87"><title>Francium (Fr) — numéro atomique 87</title><rect x="30" y="298" width="41" height="41" rx="3"/><text class="z" x="33" y="309">87</text><text class="s" x="50" y="328">Fr</text></g>
<g class="c" data-z="88"><title>Radium (Ra) — numéro atomique 88</title><rect x="74" y="298" width="41" height="41" rx="3"/><text class="z" x="77" y="309">88</text><text class="s" x="94" y="328">Ra</text></g>
<g class="c art" data-z="104"><title>Rutherfordium (Rf) — numéro atomique 104</title><rect x="162" y="298" width="41" height="41" rx="3"/><text class="z" x="165" y="309">104</text><text class="s" x="182" y="328">Rf</text></g>
<g class="c art" data-z="105"><title>Dubnium (Db) — numéro atomique 105</title><rect x="206" y="298" width="41" height="41" rx="3"/><text class="z" x="209" y="309">105</text><text class="s" x="226" y="328">Db</text></g>
<g class="c art" data-z="106"><title>Seaborgium (Sg) — numéro atomique 106</title><rect x="250" y="298" width="41" height="41" rx="3"/><text class="z" x="253" y="309">106</text><text class="s" x="270" y="328">Sg</text></g>
<g class="c art" data-z="107"><title>Bohrium (Bh) — numéro atomique 107</title><rect x="294" y="298" width="41" height="41" rx="3"/><text class="z" x="297" y="309">107</text><text class="s" x="314" y="328">Bh</text></g>
<g class="c art" data-z="108"><title>Hassium (Hs) — numéro atomique 108</title><rect x="338" y="298" width="41" height="41" rx="3"/><text class="z" x="341" y="309">108</text><text class="s" x="358" y="328">Hs</text></g>
<g class="c art" data-z="109"><title>Meitnérium (Mt) — numéro atomique 109</title><rect x="382" y="298" width="41" height="41" rx="3"/><text class="z" x="385" y="309">109</text><text class="s" x="402" y="328">Mt</text></g>
<g class="c art" data-z="110"><title>Darmstadtium (Ds) — numéro atomique 110</title><rect x="426" y="298" width="41" height="41" rx="3"/><text class="z" x="429" y="309">110</text><text class="s" x="446" y="328">Ds</text></g>
<g class="c art" data-z="111"><title>Roentgenium (Rg) — numéro atomique 111</title><rect x="470" y="298" width="41" height="41" rx="3"/><text class="z" x="473" y="309">111</text><text class="s" x="490" y="328">Rg</text></g>
<g class="c art" data-z="112"><title>Copernicium (Cn) — numéro atomique 112</title><rect x="514" y="298" width="41" height="41" rx="3"/><text class="z" x="517" y="309">112</text><text class="s" x="534" y="328">Cn</text></g>
<g class="c art" data-z="113"><title>Nihonium (Nh) — numéro atomique 113</title><rect x="558" y="298" width="41" height="41" rx="3"/><text class="z" x="561" y="309">113</text><text class="s" x="578" y="328">Nh</text></g>
<g class="c art" data-z="114"><title>Flérovium (Fl) — numéro atomique 114</title><rect x="602" y="298" width="41" height="41" rx="3"/><text class="z" x="605" y="309">114</text><text class="s" x="622" y="328">Fl</text></g>
<g class="c art" data-z="115"><title>Moscovium (Mc) — numéro atomique 115</title><rect x="646" y="298" width="41" height="41" rx="3"/><text class="z" x="649" y="309">115</text><text class="s" x="666" y="328">Mc</text></g>
<g class="c art" data-z="116"><title>Livermorium (Lv) — numéro atomique 116</title><rect x="690" y="298" width="41" height="41" rx="3"/><text class="z" x="693" y="309">116</text><text class="s" x="710" y="328">Lv</text></g>
<g class="c art" data-z="117"><title>Tennesse (Ts) — numéro atomique 117</title><rect x="734" y="298" width="41" height="41" rx="3"/><text class="z" x="737" y="309">117</text><text class="s" x="754" y="328">Ts</text></g>
<g class="c art" data-z="118"><title>Oganesson (Og) — numéro atomique 118</title><rect x="778" y="298" width="41" height="41" rx="3"/><text class="z" x="781" y="309">118</text><text class="s" x="798" y="328">Og</text></g>
<g class="c lan" data-z="57"><title>Lanthane (La) — numéro atomique 57</title><rect x="118" y="368" width="41" height="41" rx="3"/><text class="z" x="121" y="379">57</text><text class="s" x="138" y="398">La</text></g>
<g class="c lan" data-z="58"><title>Cérium (Ce) — numéro atomique 58</title><rect x="162" y="368" width="41" height="41" rx="3"/><text class="z" x="165" y="379">58</text><text class="s" x="182" y="398">Ce</text></g>
<g class="c lan" data-z="59"><title>Praséodyme (Pr) — numéro atomique 59</title><rect x="206" y="368" width="41" height="41" rx="3"/><text class="z" x="209" y="379">59</text><text class="s" x="226" y="398">Pr</text></g>
<g class="c lan" data-z="60"><title>Néodyme (Nd) — numéro atomique 60</title><rect x="250" y="368" width="41" height="41" rx="3"/><text class="z" x="253" y="379">60</text><text class="s" x="270" y="398">Nd</text></g>
<g class="c lan" data-z="61"><title>Prométhium (Pm) — numéro atomique 61</title><rect x="294" y="368" width="41" height="41" rx="3"/><text class="z" x="297" y="379">61</text><text class="s" x="314" y="398">Pm</text></g>
<g class="c lan" data-z="62"><title>Samarium (Sm) — numéro atomique 62</title><rect x="338" y="368" width="41" height="41" rx="3"/><text class="z" x="341" y="379">62</text><text class="s" x="358" y="398">Sm</text></g>
<g class="c lan" data-z="63"><title>Europium (Eu) — numéro atomique 63</title><rect x="382" y="368" width="41" height="41" rx="3"/><text class="z" x="385" y="379">63</text><text class="s" x="402" y="398">Eu</text></g>
<g class="c lan" data-z="64"><title>Gadolinium (Gd) — numéro atomique 64</title><rect x="426" y="368" width="41" height="41" rx="3"/><text class="z" x="429" y="379">64</text><text class="s" x="446" y="398">Gd</text></g>
<g class="c lan" data-z="65"><title>Terbium (Tb) — numéro atomique 65</title><rect x="470" y="368" width="41" height="41" rx="3"/><text class="z" x="473" y="379">65</text><text class="s" x="490" y="398">Tb</text></g>
<g class="c lan" data-z="66"><title>Dysprosium (Dy) — numéro atomique 66</title><rect x="514" y="368" width="41" height="41" rx="3"/><text class="z" x="517" y="379">66</text><text class="s" x="534" y="398">Dy</text></g>
<g class="c lan" data-z="67"><title>Holmium (Ho) — numéro atomique 67</title><rect x="558" y="368" width="41" height="41" rx="3"/><text class="z" x="561" y="379">67</text><text class="s" x="578" y="398">Ho</text></g>
<g class="c lan" data-z="68"><title>Erbium (Er) — numéro atomique 68</title><rect x="602" y="368" width="41" height="41" rx="3"/><text class="z" x="605" y="379">68</text><text class="s" x="622" y="398">Er</text></g>
<g class="c lan" data-z="69"><title>Thulium (Tm) — numéro atomique 69</title><rect x="646" y="368" width="41" height="41" rx="3"/><text class="z" x="649" y="379">69</text><text class="s" x="666" y="398">Tm</text></g>
<g class="c lan" data-z="70"><title>Ytterbium (Yb) — numéro atomique 70</title><rect x="690" y="368" width="41" height="41" rx="3"/><text class="z" x="693" y="379">70</text><text class="s" x="710" y="398">Yb</text></g>
<g class="c lan" data-z="71"><title>Lutécium (Lu) — numéro atomique 71</title><rect x="734" y="368" width="41" height="41" rx="3"/><text class="z" x="737" y="379">71</text><text class="s" x="754" y="398">Lu</text></g>
<g class="c act" data-z="89"><title>Actinium (Ac) — numéro atomique 89</title><rect x="118" y="412" width="41" height="41" rx="3"/><text class="z" x="121" y="423">89</text><text class="s" x="138" y="442">Ac</text></g>
<g class="c act" data-z="90"><title>Thorium (Th) — numéro atomique 90</title><rect x="162" y="412" width="41" height="41" rx="3"/><text class="z" x="165" y="423">90</text><text class="s" x="182" y="442">Th</text></g>
<g class="c act" data-z="91"><title>Protactinium (Pa) — numéro atomique 91</title><rect x="206" y="412" width="41" height="41" rx="3"/><text class="z" x="209" y="423">91</text><text class="s" x="226" y="442">Pa</text></g>
<g class="c act" data-z="92"><title>Uranium (U) — numéro atomique 92</title><rect x="250" y="412" width="41" height="41" rx="3"/><text class="z" x="253" y="423">92</text><text class="s" x="270" y="442">U</text></g>
<g class="c act" data-z="93"><title>Neptunium (Np) — numéro atomique 93</title><rect x="294" y="412" width="41" height="41" rx="3"/><text class="z" x="297" y="423">93</text><text class="s" x="314" y="442">Np</text></g>
<g class="c act" data-z="94"><title>Plutonium (Pu) — numéro atomique 94</title><rect x="338" y="412" width="41" height="41" rx="3"/><text class="z" x="341" y="423">94</text><text class="s" x="358" y="442">Pu</text></g>
<g class="c art act" data-z="95"><title>Américium (Am) — numéro atomique 95</title><rect x="382" y="412" width="41" height="41" rx="3"/><text class="z" x="385" y="423">95</text><text class="s" x="402" y="442">Am</text></g>
<g class="c art act" data-z="96"><title>Curium (Cm) — numéro atomique 96</title><rect x="426" y="412" width="41" height="41" rx="3"/><text class="z" x="429" y="423">96</text><text class="s" x="446" y="442">Cm</text></g>
<g class="c art act" data-z="97"><title>Berkélium (Bk) — numéro atomique 97</title><rect x="470" y="412" width="41" height="41" rx="3"/><text class="z" x="473" y="423">97</text><text class="s" x="490" y="442">Bk</text></g>
<g class="c art act" data-z="98"><title>Californium (Cf) — numéro atomique 98</title><rect x="514" y="412" width="41" height="41" rx="3"/><text class="z" x="517" y="423">98</text><text class="s" x="534" y="442">Cf</text></g>
<g class="c art act" data-z="99"><title>Einsteinium (Es) — numéro atomique 99</title><rect x="558" y="412" width="41" height="41" rx="3"/><text class="z" x="561" y="423">99</text><text class="s" x="578" y="442">Es</text></g>
<g class="c art act" data-z="100"><title>Fermium (Fm) — numéro atomique 100</title><rect x="602" y="412" width="41" height="41" rx="3"/><text class="z" x="605" y="423">100</text><text class="s" x="622" y="442">Fm</text></g>
<g class="c art act" data-z="101"><title>Mendélévium (Md) — numéro atomique 101</title><rect x="646" y="412" width="41" height="41" rx="3"/><text class="z" x="649" y="423">101</text><text class="s" x="666" y="442">Md</text></g>
<g class="c art act" data-z="102"><title>Nobélium (No) — numéro atomique 102</title><rect x="690" y="412" width="41" height="41" rx="3"/><text class="z" x="693" y="423">102</text><text class="s" x="710" y="442">No</text></g>
<g class="c art act" data-z="103"><title>Lawrencium (Lr) — numéro atomique 103</title><rect x="734" y="412" width="41" height="41" rx="3"/><text class="z" x="737" y="423">103</text><text class="s" x="754" y="442">Lr</text></g>
<path class="fil" d="M138 295 L138 368"/>
<rect class="c lan trou" x="118" y="254" width="41" height="41" rx="3"/>
<rect class="c act trou" x="118" y="298" width="41" height="41" rx="3"/>
<text class="rep pt" x="138" y="278">57-71</text>
<text class="rep pt" x="138" y="322">89-103</text>
<g class="lg"><rect class="c gaz" x="30" y="477" width="14" height="14" rx="2"/><text x="50" y="488">Gaz</text></g>
<g class="lg"><rect class="c liq" x="77" y="477" width="14" height="14" rx="2"/><text x="97" y="488">Liquide</text></g>
<g class="lg"><rect class="c art" x="153" y="477" width="14" height="14" rx="2"/><text x="173" y="488">Artificiel</text></g>
<g class="lg"><circle class="chon" cx="257" cy="484" r="3.2"/><text x="268" y="488">Dans ton corps (C, H, O, N)</text></g>
</svg>
