<svg class="nx nx-couches" viewBox="0 0 640 432" role="img" aria-labelledby="nx-couches-t" xmlns="http://www.w3.org/2000/svg">
<title id="nx-couches-t">Coupe d'une étoile massive en fin de vie : huit couches concentriques, de l'hydrogène en surface au cœur de fer et de nickel, chaque couche fabriquant un élément plus lourd que celle qui l'entoure.</title>
<defs><marker id="pointe-nx-couches" viewBox="0 0 10 10" refX="9" refY="5" markerWidth="6" markerHeight="6" orient="auto-start-reverse"><path d="M0 0 L10 5 L0 10 z"/></marker></defs>
<path class="cq-f" fill-opacity="0.10" d="M16.0 416.0 L384.0 416.0 A368.0 368.0 0 0 0 16.0 48.0 Z"/>
<path class="cq" d="M384.0 416.0 A368.0 368.0 0 0 0 16.0 48.0"/>
<path class="cq-f" fill-opacity="0.18" d="M16.0 416.0 L338.0 416.0 A322.0 322.0 0 0 0 16.0 94.0 Z"/>
<path class="cq" d="M338.0 416.0 A322.0 322.0 0 0 0 16.0 94.0"/>
<path class="cq-f" fill-opacity="0.26" d="M16.0 416.0 L292.0 416.0 A276.0 276.0 0 0 0 16.0 140.0 Z"/>
<path class="cq" d="M292.0 416.0 A276.0 276.0 0 0 0 16.0 140.0"/>
<path class="cq-f" fill-opacity="0.34" d="M16.0 416.0 L246.0 416.0 A230.0 230.0 0 0 0 16.0 186.0 Z"/>
<path class="cq" d="M246.0 416.0 A230.0 230.0 0 0 0 16.0 186.0"/>
<path class="cq-f" fill-opacity="0.41" d="M16.0 416.0 L200.0 416.0 A184.0 184.0 0 0 0 16.0 232.0 Z"/>
<path class="cq" d="M200.0 416.0 A184.0 184.0 0 0 0 16.0 232.0"/>
<path class="cq-f" fill-opacity="0.49" d="M16.0 416.0 L154.0 416.0 A138.0 138.0 0 0 0 16.0 278.0 Z"/>
<path class="cq" d="M154.0 416.0 A138.0 138.0 0 0 0 16.0 278.0"/>
<path class="cq-f" fill-opacity="0.57" d="M16.0 416.0 L108.0 416.0 A92.0 92.0 0 0 0 16.0 324.0 Z"/>
<path class="cq" d="M108.0 416.0 A92.0 92.0 0 0 0 16.0 324.0"/>
<path class="cq-f" fill-opacity="0.65" d="M16.0 416.0 L62.0 416.0 A46.0 46.0 0 0 0 16.0 370.0 Z"/>
<path class="cq" d="M62.0 416.0 A46.0 46.0 0 0 0 16.0 370.0"/>
<circle class="cq-pt" cx="28.5" cy="394.0" r="2.6"/>
<line class="cq-lien" x1="28.5" y1="394.0" x2="392.0" y2="394.0"/>
<text class="lb cq-t g" x="400.0" y="398.5">Fe, Ni <tspan class="cq-n">— le cœur</tspan></text>
<circle class="cq-pt" cx="32.5" cy="349.0" r="2.6"/>
<line class="cq-lien" x1="32.5" y1="349.0" x2="392.0" y2="349.0"/>
<text class="lb cq-t g" x="400.0" y="353.5">²⁸Si <tspan class="fl-t">→</tspan> ⁵⁶Ni</text>
<circle class="cq-pt" cx="42.1" cy="304.0" r="2.6"/>
<line class="cq-lien" x1="42.1" y1="304.0" x2="392.0" y2="304.0"/>
<text class="lb cq-t g" x="400.0" y="308.5">¹⁶O <tspan class="fl-t">→</tspan> ²⁸Si</text>
<circle class="cq-pt" cx="51.7" cy="259.0" r="2.6"/>
<line class="cq-lien" x1="51.7" y1="259.0" x2="392.0" y2="259.0"/>
<text class="lb cq-t g" x="400.0" y="263.5">²⁰Ne <tspan class="fl-t">→</tspan> ¹⁶O</text>
<circle class="cq-pt" cx="61.2" cy="214.0" r="2.6"/>
<line class="cq-lien" x1="61.2" y1="214.0" x2="392.0" y2="214.0"/>
<text class="lb cq-t g" x="400.0" y="218.5">¹²C <tspan class="fl-t">→</tspan> ²⁰Ne</text>
<circle class="cq-pt" cx="70.8" cy="169.0" r="2.6"/>
<line class="cq-lien" x1="70.8" y1="169.0" x2="392.0" y2="169.0"/>
<text class="lb cq-t g" x="400.0" y="173.5">⁴He <tspan class="fl-t">→</tspan> ¹²C, ¹⁶O</text>
<circle class="cq-pt" cx="80.3" cy="124.0" r="2.6"/>
<line class="cq-lien" x1="80.3" y1="124.0" x2="392.0" y2="124.0"/>
<text class="lb cq-t g" x="400.0" y="128.5">¹H <tspan class="fl-t">→</tspan> ⁴He</text>
<circle class="cq-pt" cx="89.9" cy="79.0" r="2.6"/>
<line class="cq-lien" x1="89.9" y1="79.0" x2="392.0" y2="79.0"/>
<text class="lb cq-t g" x="400.0" y="83.5">H <tspan class="cq-n">— l'enveloppe, qui ne fusionne plus</tspan></text>
</svg>
